**ABCDEFGHIJKLMNOPQRSTUVWXYZabcdefghijklmnopqrstuvwxyz**************************
**PARASOLID !"#$%&'()*+,-./:;<=>?@[\]^_`{|}~0123456789**************************
**PART1;
MC=AMD64;
MC_MODEL=AMD64 Family 25 Model 97 Stepping 2, AuthenticAMD;
MC_ID=unknown;
OS=Windows_NT;
OS_RELEASE=unknown;
FRU=Parasolid Version 35.1, build 256,  4-22-2024;
APPL=SOLIDWORKS 2024-2024282;
SITE=;
USER=unknown;
FORMAT=text;
GUISE=transmit;
KEY=PC Stand Assembly;
FILE=PC Stand Assembly.x_t;
DATE=Mon May 25 01:36:20 2026;
**PART2;
SCH=SCH_3501256_35102;
USFLD_SIZE=0;
**PART3;
**END_OF_HEADER*****************************************************************
T51 : TRANSMIT FILE created by modeller version 350125623 SCH_3501256_35102_1300
6231 0 10 21 CCCCI7 lattice222 0 CCCI4 mesh1006 0 I8 polyline1008 0 CCCCCCCCCCA1
6 mesh_offset_data206 0 Z1 9 2 3 0 0 0 0 0 0 0 0 1e3 1e-8 0 0 0 1 0 1 4 0 81 255
 1 2 9 5 1 0 0 0 0 0 70 11 CI9 list_type0 0 1 uI10 notransmit0 0 1 lCCCDCCDI12 f
inger_index0 0 1 dI12 finger_block1012 0 CZ3 0 4 T1 0 0 1 20 1 6 6 11 255 4 7 0
 1 7 8 1 9 0 10 0 12 36 CCCI7 lattice222 0 CCCI4 mesh1006 0 I8 polyline1008 0 CC
CCCCCDI5 owner1040 0 CCCI16 boundary_lattice222 0 CCCI13 boundary_mesh1006 0 I17
 boundary_polyline1008 0 CCCA16 index_map_offset0 0 1 dA9 index_map82 0 A17 node
_id_index_map82 0 A20 schema_embedding_map82 0 A5 child12 0 A14 lowest_node_id0
 0 1 dA16 mesh_offset_data206 0 Z7 3805 11 12 0 0 0 0 0 0 0 1e3 1e-8 4 13 0 1 0
 1 1 14 0 15 16 17 0 0 18 19 20 0 0 0 0 0 0 0 100 10 CCCCCCCCCA9 precision229 0
 Z8 8 4 0 0 738891954207813e-46 -2718256710113695e-31 1 -2718256710113695e-31 1
 2718256710113695e-31 -1 -2718256710113695e-31 0 -.15875 -.04445 -.0316865 1 3 ?
0 11 9 5 0 1 13 21 1 10 4 22 0 12 13 331 23 24 0 0 0 0 0 0 0 1e3 1e-8 9 25 7 1 0
 1 1 26 0 27 28 29 0 0 30 31 32 0 0 0 0 0 0 0 100 21 6 9 0 0 1 0 0 0 1 0 0 0 1 0
 0 .0127 1 1 ?0 11 10 3 0 1 7 33 1 22 9 0 4 100 33 4 10 0 0 738891954207813e-46
 2718256710113695e-31 -1 2718256710113695e-31 1 2718256710113695e-31 1 -27182567
10113695e-31 0 .15875 -.04445 .0318135 1 3 ?0 11 22 1 0 1 13 34 1 0 10 0 9 100 3
4 2 22 0 0 1 0 0 0 1 0 0 0 1 0 0 -.0127 1 1 ?0 81 1 23 331 5 13 35 0 0 0 36 70 2
4 0 4 T13 0 0 5 20 1 37 37 13 255 26 99 0 13 0 38 0 0 39 0 50 255 27 94 0 38 40
 0 0 +.1524 -.0127 .0127 0 0 -1 -1 0 0 30 255 28 98 0 31 41 0 0 +.1524 -.0127 .0
127 -1 0 0 29 255 29 75 0 42 43 0 -.1524 .0127 .0127 19 9 CCCCCCI5 frame230 0 CA
5 owner12 0 Z30 33 0 13 39 0 44 0 V0 16 255 31 82 0 ?45 0 46 28 0 0 13 18 255 32
 30 0 47 0 48 49 ?13 17 255 47 0 50 51 52 32 53 54 0 55 +18 48 27 0 52 32 56 57
 ?13 29 49 32 0 32 57 58 .1524 .0127 .0127 29 57 29 0 48 59 49 .1524 .0127 -.012
7 29 58 78 0 60 49 61 -.1524 -.0127 .0127 18 60 69 0 62 63 0 58 ?13 29 61 77 0 6
3 58 43 -.1524 -.0127 -.0127 18 63 68 0 64 65 60 61 ?13 29 43 76 0 65 61 29 -.15
24 .0127 -.0127 18 65 67 0 66 42 63 43 ?13 17 66 0 67 68 69 65 70 71 0 72 +18 42
 66 0 73 74 65 29 ?13 17 73 0 75 55 72 42 76 77 0 78 +18 74 21 0 79 56 42 80 ?13
 17 79 0 81 45 82 74 83 84 0 51 -18 56 24 0 83 48 74 59 ?13 29 80 23 0 74 0 59 .
1524 -.0127 .0127 29 59 26 0 56 80 57 .1524 -.0127 -.0127 17 83 0 50 52 51 56 79
 84 0 82 +15 255 50 4 0 51 85 0 17 52 0 50 47 83 48 86 87 0 68 +17 51 0 50 83 47
 74 88 89 0 90 +16 84 9 0 ?83 87 89 91 0 0 13 17 82 0 81 79 64 56 69 46 0 86 -15
 81 87 0 64 92 0 17 64 0 81 82 45 63 62 93 0 69 +17 69 0 67 66 86 63 82 46 0 70
 +16 46 81 0 ?69 31 94 41 0 0 13 17 86 0 67 69 68 56 52 87 0 0 -15 67 85 0 66 95
 0 17 68 0 67 86 66 48 72 94 0 53 -16 87 13 0 ?52 54 84 96 0 0 13 16 54 17 0 ?47
 97 87 98 0 0 13 30 96 15 0 87 91 98 0 +.1524 -.0127 -.0127 0 1 0 30 91 11 0 84
 99 96 0 +.1524 -.0127 -.0127 0 0 -1 30 98 19 0 54 96 100 0 +.1524 .0127 -.0127
 0 0 1 30 100 74 0 101 98 102 0 +-.1524 -.0127 .0127 0 -1 0 16 101 62 0 ?103 93
 0 100 0 0 13 30 102 73 0 93 100 104 0 +-.1524 -.0127 -.0127 0 0 -1 16 93 58 0 ?
64 71 101 102 0 0 13 30 104 72 0 71 102 105 0 +-.1524 -.0127 -.0127 0 1 0 16 71
 54 0 ?66 77 93 104 0 0 13 30 105 71 0 77 104 106 0 +-.1524 .0127 -.0127 0 0 1 1
6 77 50 0 ?73 89 71 105 0 0 13 30 106 95 0 97 105 107 0 +.1524 .0127 .0127 -1 0
 0 16 97 79 0 ?78 94 54 106 0 0 13 30 107 96 0 94 106 41 0 +.1524 .0127 -.0127 -
1 0 0 16 94 80 0 ?72 46 97 107 0 0 13 30 41 97 0 46 107 28 0 +.1524 -.0127 -.012
7 -1 0 0 17 72 0 75 73 53 65 68 94 0 76 +15 75 83 0 73 108 0 17 53 0 75 72 55 48
 47 54 0 0 -17 76 0 109 70 110 65 73 77 0 0 -15 109 49 0 110 111 0 17 70 0 109 6
2 76 63 66 71 0 0 -17 110 0 109 76 62 42 103 101 0 0 -17 62 0 109 110 70 60 64 9
3 0 45 -17 103 0 112 90 78 60 110 101 0 0 +15 112 89 0 103 38 0 17 90 0 112 88 1
03 74 45 31 0 0 -17 78 0 112 103 88 42 55 97 0 110 +17 88 0 112 78 90 32 51 89 0
 0 -17 55 0 75 53 73 32 78 97 0 88 -16 89 5 0 ?51 84 77 99 0 0 13 30 99 7 0 89 0
 91 0 +.1524 -.0127 .0127 0 -1 0 17 45 0 81 64 79 60 90 31 0 103 +14 255 38 90 1
13 ?92 0 112 26 27 -0 0 92 0 44 81 1 113 325 114 38 115 0 0 116 117 14 92 88 116
 ?95 38 81 26 40 -0 0 95 38 44 13 44 34 0 0 0 0 0 0 30 38 81 1 116 326 114 92 11
8 0 113 119 120 14 95 86 119 ?108 92 67 26 121 -0 0 108 92 44 50 40 93 0 92 121
 27 0 +.1524 -.0127 -.0127 0 1 0 0 0 1 50 121 92 0 95 122 40 0 +.1524 -.0127 -.0
127 0 0 1 1 0 0 50 122 91 0 108 123 121 0 +.1524 .0127 -.0127 0 -1 0 0 0 -1 14 1
08 84 124 ?85 95 75 26 122 -0 0 85 95 44 50 123 70 0 111 125 122 0 +-.1524 0 0 1
 0 0 0 0 -1 14 111 48 126 ?0 85 109 26 123 -0 0 0 85 44 50 125 3 0 85 0 123 0 +.
1524 0 0 1 0 0 0 0 -1 14 85 1 127 ?111 108 50 26 125 +0 0 111 108 44 81 1 127 32
9 114 85 128 0 124 126 129 80 7 CCCCCDI12 legal_owners0 16 1 lCZ1 114 0 130 8001
 0 0 0 0 3 5 0 0 0 FFFFTFTFFFFFFFFF2 81 1 128 322 131 85 0 127 132 0 133 81 1 12
4 328 114 108 134 0 119 127 135 81 1 126 330 114 111 132 0 127 0 136 83 255 3 12
9 1 1 1 81 1 132 319 131 111 0 126 134 128 137 83 3 136 1 1 1 80 1 131 138 139 9
000 1 1 1 1 1 1 1 1 0 FFFFTFTFFFFFFFFF1 81 1 134 316 131 108 0 124 140 132 141 8
2 255 1 137 779681895 81 1 140 313 131 95 0 119 118 134 142 82 1 141 780599399 8
1 1 119 327 114 95 140 0 116 124 143 81 1 118 310 131 92 0 116 115 140 144 82 1
 142 780861543 81 1 115 307 131 38 0 113 0 118 145 82 1 144 781123687 82 1 145 7
81385831 83 3 143 1 1 1 79 255 14 139 SWEntUnchanged83 3 135 1 1 1 82 1 133 7740
45799 79 15 130 SDL/TYSA_COLOUR83 3 120 1 1 1 83 3 117 1 1 1 19 39 100 0 13 0 30
 26 0 S0 74 4 CI16 index_map_offset0 0 1 dCCZ20 37 5 0 0 146 35 128 126 23 0 0 0
 0 0 0 0 0 0 0 0 0 0 0 0 81 2 146 135 147 13 0 35 0 0 148 0 81 2 35 151 149 13 1
46 23 0 0 150 0 80 2 149 151 152 8004 0 0 0 0 3 5 0 0 0 FFTFFFFFFFFFFFFF2 3 83 1
 150 1 79 16 152 SDL/TYSA_DENSITY80 2 147 153 154 9000 0 0 0 0 3 5 0 0 0 FFTFTTT
FFTFFFFFF10 10 98 255 13 148 66 111 115 115 45 69 120 116 114 117 100 101 49 79
 23 154 SWIMPLICITBODYNAME_ID_U80 1 5 155 156 8017 0 0 0 0 0 0 0 0 0 TTTTTTTTTTT
TTFTF3 84 255 13 36 Wooden Dowell79 13 156 SDL/TYSA_NAME81 1 11 3805 5 7 157 0 0
 0 158 70 12 0 4 T7 0 0 5 20 1 159 159 13 14 99 0 7 0 160 0 0 161 0 50 15 94 0 1
62 163 0 0 +-.0635 0 .0254 1 0 0 0 0 -1 30 16 98 0 19 164 0 0 +-.0635 0 .0254 0
 0 -1 29 17 313 0 20 165 0 -.0572135 .031623 .00635 19 18 33 0 7 161 0 166 0 V0
 16 19 82 0 ?167 0 168 16 0 0 7 18 20 311 0 169 0 170 17 ?7 17 169 0 171 172 173
 20 174 175 0 176 -18 170 302 0 177 20 178 165 ?7 17 177 0 179 180 181 170 182 1
83 0 173 +18 178 290 0 184 170 185 186 ?7 29 165 304 0 170 186 17 -.0062865 .031
623 .00635 29 186 292 0 178 187 165 -.0062865 .05715 .0063499999999988 29 187 13
4 0 185 188 186 -.0062865 .05715 .0254 18 185 132 0 189 178 190 187 ?7 29 188 75
 0 191 192 187 -.0635 .0635 -1221245327087672e-30 18 191 66 0 193 194 195 188 ?7
 29 192 76 0 195 196 188 0 .0635 -1221245327087672e-30 18 195 67 0 197 191 198 1
92 ?7 29 196 77 0 198 199 192 0 0 0 18 198 68 0 200 195 201 196 ?7 29 199 78 0 2
01 202 196 -.0635 0 0 18 201 69 0 203 198 204 199 ?7 29 202 32 0 190 205 199 -.0
635 .0635 .0253999999999988 18 190 30 0 206 185 207 202 ?7 29 205 29 0 207 208 2
02 0 .0635 .0253999999999988 18 207 27 0 209 190 210 205 ?7 29 208 26 0 210 211
 205 0 0 .0254 18 210 24 0 212 207 194 208 ?7 29 211 23 0 194 213 208 -.0635 0 .
0254 18 194 21 0 214 210 191 211 ?7 29 213 235 0 204 215 211 -.0572135 .05715 .0
254 18 204 187 0 216 201 217 213 ?7 29 215 237 0 217 218 213 -.0062865 .031623 .
0254 18 217 185 0 219 204 220 215 ?7 29 218 238 0 220 221 215 -.0572135 .031623
 .0254 18 220 182 0 222 217 223 218 ?7 29 221 413 0 223 0 218 -.0572135 .05715 .
0063499999999988 18 223 357 0 224 220 0 221 ?7 17 224 0 225 184 216 223 226 227
 0 228 +15 225 297 0 184 229 0 17 184 0 225 189 224 178 230 231 0 181 +17 216 0
 225 224 189 204 232 233 0 226 +17 226 0 234 222 228 204 224 227 0 235 -16 227 1
56 0 ?224 236 233 237 0 0 7 17 228 0 234 226 176 223 238 239 0 230 -15 234 321 0
 228 240 0 17 176 0 234 228 222 20 172 241 0 238 +17 238 0 242 174 230 20 228 23
9 0 0 +16 239 343 0 ?238 175 231 243 0 0 7 17 230 0 242 238 182 223 184 231 0 0
 -15 242 382 0 182 244 0 17 182 0 242 230 174 178 177 183 0 0 -16 231 331 0 ?184
 239 183 245 0 0 7 16 183 327 0 ?177 231 0 246 0 0 7 30 245 405 0 231 246 243 0
 +0 .05715 .0063499999999988 1 0 0 30 246 406 0 183 0 245 0 +-.0062865 -11102230
24625156e-31 .00635 2718256710113695e-31 -1 0 30 243 404 0 239 245 247 0 +-.0572
135 -971445146547012e-31 .00635 -2718256710113695e-31 -1 0 30 247 403 0 175 243
 248 0 +0 .031623 .00635 1 0 0 16 175 346 0 ?174 249 239 247 0 0 7 30 248 230 0
 249 247 250 0 +-.0572135 .05715 .0254 -2718256710113695e-31 -1 0 16 249 169 0 ?
222 251 175 248 0 0 7 30 250 229 0 251 248 252 0 +-.0572135 .031623 .0254 1 0 0
 16 251 172 0 ?219 253 249 250 0 0 7 30 252 228 0 253 250 254 0 +-.0062865 .0571
5 .0254 -2718256710113695e-31 1 0 16 253 175 0 ?255 233 251 252 0 0 7 30 254 227
 0 233 252 237 0 +-.0572135 .05715 .0254 -1 0 0 16 233 178 0 ?216 227 253 254 0
 0 7 30 237 222 0 227 254 256 0 +-.0572135 .05715 .0254 0 0 -1 30 256 221 0 236
 237 257 0 +-.0062865 .05715 .0254 0 0 -1 16 236 168 0 ?181 258 227 256 0 0 7 30
 257 220 0 258 256 259 0 +-.0062865 .031623 .0254 0 0 -1 16 258 164 0 ?173 241 2
36 257 0 0 7 30 259 219 0 241 257 260 0 +-.0572135 .031623 .0254 0 0 -1 16 241 1
60 0 ?176 261 258 259 0 0 7 30 260 7 0 262 259 263 0 +-.0635 0 .0254 0 -1 0 16 2
62 5 0 ?264 265 266 260 0 0 7 30 263 11 0 265 260 267 0 +-.0635 0 .0254 1 0 0 16
 265 9 0 ?212 268 262 263 0 0 7 30 267 15 0 268 263 269 0 +0 0 .0254 0 1 0 16 26
8 13 0 ?209 270 265 267 0 0 7 30 269 19 0 270 267 271 0 +-.0635 .0635 .025399999
9999988 -1 0 0 16 270 17 0 ?206 272 268 269 0 0 7 30 271 74 0 261 269 273 0 +-.0
635 0 0 0 -1 0 16 261 62 0 ?274 275 241 271 0 0 7 30 273 73 0 275 271 276 0 +-.0
635 0 0 1 0 0 16 275 58 0 ?200 277 261 273 0 0 7 30 276 72 0 277 273 278 0 +0 0
 0 0 1 0 16 277 54 0 ?197 266 275 276 0 0 7 30 278 71 0 266 276 279 0 +-.0635 .0
635 -1221245327087672e-30 -1 0 0 16 266 50 0 ?193 262 277 278 0 0 7 30 279 95 0
 272 278 280 0 +-.0635 .0635 .0253999999999988 0 0 -1 16 272 79 0 ?281 282 270 2
79 0 0 7 30 280 96 0 282 279 164 0 +0 .0635 .0253999999999988 0 0 -1 16 282 80 0
 ?283 168 272 280 0 0 7 30 164 97 0 168 280 16 0 +0 0 .0254 0 0 -1 16 168 81 0 ?
284 19 282 164 0 0 7 17 284 0 285 197 286 198 287 168 0 288 +15 285 85 0 197 289
 0 17 197 0 285 290 284 195 288 277 0 283 +17 286 0 285 284 290 210 209 268 0 0
 -17 287 0 291 214 200 210 284 168 0 286 -17 288 0 292 203 293 198 197 277 0 0 -
15 292 49 0 294 295 0 17 203 0 292 294 288 201 200 275 0 167 -17 293 0 292 288 2
94 195 193 266 0 0 -17 294 0 292 293 203 191 274 261 0 0 -17 193 0 296 297 283 1
91 293 266 0 281 +15 296 83 0 193 298 0 17 297 0 296 299 193 190 281 272 0 300 -
17 283 0 296 193 299 195 290 282 0 293 +17 281 0 301 274 300 191 297 272 0 294 +
15 301 89 0 274 162 0 17 274 0 301 302 281 201 294 261 0 0 +17 300 0 301 281 302
 190 264 262 0 0 -17 302 0 301 300 274 194 167 19 0 0 -17 264 0 303 212 206 194
 300 262 0 302 +15 303 4 0 264 160 304 17 212 0 303 209 264 210 214 265 0 287 +1
7 206 0 303 264 209 190 299 270 0 297 +17 209 0 303 206 212 207 286 268 0 290 +1
7 299 0 296 283 297 207 206 270 0 0 -17 290 0 285 286 197 207 283 282 0 299 -17
 214 0 291 167 287 194 212 265 0 264 -15 291 87 0 200 305 0 17 167 0 291 200 214
 201 302 19 0 274 +17 200 0 291 287 167 198 203 275 0 284 +14 305 88 306 ?289 16
2 291 14 163 -0 0 289 162 166 81 1 306 3797 114 305 307 0 308 309 310 14 289 86
 309 ?298 305 285 14 311 -0 0 298 305 166 14 162 90 308 ?305 295 301 14 15 -0 0
 305 295 166 50 163 93 0 305 311 15 0 +-.0635 0 .0254 0 1 0 0 0 1 13 166 34 0 0
 0 0 0 0 18 160 14 160 150 312 ?295 0 303 14 313 -0 0 295 0 166 81 1 312 3794 11
4 160 314 0 0 315 316 14 295 130 315 ?162 160 292 14 317 +0 0 162 160 166 50 313
 3 0 160 318 317 0 +0 0 .0254 0 0 -1 -1 0 0 50 318 213 0 240 319 313 0 +-.057213
5 .05715 .0254 1 -2718256710113695e-31 0 2718256710113695e-31 1 0 50 317 70 0 29
5 313 320 0 +0 0 0 0 0 -1 -1 0 0 50 320 91 0 298 317 311 0 +-.0635 .0635 .025399
9999999988 0 -1 0 0 0 -1 14 298 84 321 ?240 289 296 14 320 -0 0 240 289 166 50 3
11 92 0 289 320 163 0 +0 0 .0254 -1 0 0 0 0 1 81 1 321 3799 114 298 322 0 309 32
3 324 14 240 189 323 ?325 298 234 14 318 +0 0 325 298 166 81 1 323 3800 114 240
 326 0 321 327 328 14 325 193 327 ?329 240 171 14 319 +0 0 329 240 166 81 1 327
 3801 114 325 330 0 323 331 332 14 329 197 331 ?229 325 179 14 333 +0 0 229 325
 166 15 171 315 0 169 325 0 50 319 214 0 325 333 318 0 +-.0572135 .031623 .0254
 0 1 0 0 0 1 50 333 215 0 329 334 319 0 +-.0062865 .05715 .0254 -1 -271825671011
3695e-31 0 2718256710113695e-31 -1 0 50 334 216 0 229 335 333 0 +-.0572135 .0571
5 .0254 0 -1 0 0 0 -1 14 229 201 336 ?244 329 225 14 334 +0 0 244 329 166 50 335
 394 0 244 0 334 0 +0 -1110223024625156e-31 .00635 0 0 1 1 0 0 14 244 379 337 ?0
 229 242 14 335 +0 0 0 229 166 81 1 337 3804 114 244 338 0 336 0 339 81 1 338 37
91 131 244 0 337 340 0 341 81 1 336 3803 114 229 340 0 331 337 342 83 3 339 .109
8039215686274 .1098039215686274 .1098039215686274 81 1 340 3788 131 229 0 336 34
3 338 344 81 1 331 3802 114 329 343 0 327 336 345 83 3 342 .1098039215686274 .10
98039215686274 .1098039215686274 81 1 343 3785 131 329 0 331 330 340 346 83 3 34
5 .1098039215686274 .1098039215686274 .1098039215686274 81 1 330 3782 131 325 0
 327 326 343 347 82 1 346 906100847 81 1 326 3779 131 240 0 323 322 330 348 82 1
 347 906362991 81 1 322 3776 131 298 0 321 349 326 350 82 1 348 906625135 81 1 3
49 3772 131 295 0 315 314 322 351 82 1 350 894107757 81 1 315 3795 114 295 349 0
 312 308 352 81 1 314 3769 131 160 0 312 353 349 354 82 1 351 910360687 81 1 353
 3766 131 162 0 308 355 314 356 82 1 354 912195693 81 1 308 3796 114 162 353 0 3
15 306 357 81 1 355 3763 131 289 0 309 307 353 358 82 1 356 894894189 81 1 309 3
798 114 289 355 0 306 321 359 81 1 307 3760 131 305 0 306 0 355 360 82 1 358 894
369901 82 1 360 894632045 83 3 359 .1098039215686274 .1098039215686274 .10980392
15686274 83 3 357 .1098039215686274 .1098039215686274 .1098039215686274 83 3 352
 .1098039215686274 .1098039215686274 .1098039215686274 82 1 344 905838703 82 1 3
41 -1470889873 15 179 306 0 177 329 0 83 3 332 .1098039215686274 .10980392156862
74 .1098039215686274 83 3 328 .1098039215686274 .1098039215686274 .1098039215686
274 83 3 324 .1098039215686274 .1098039215686274 .1098039215686274 83 3 316 .109
8039215686274 .1098039215686274 .1098039215686274 83 3 310 .1098039215686274 .10
98039215686274 .1098039215686274 15 304 148 0 235 160 0 17 235 0 304 232 361 204
 222 249 0 0 -17 232 0 304 362 235 185 216 233 0 0 -17 361 0 304 235 362 220 219
 251 0 0 -17 222 0 234 176 226 220 235 249 0 172 +17 172 0 171 219 169 220 176 2
41 0 361 -17 219 0 171 173 172 217 361 251 0 180 +17 173 0 171 169 219 170 180 2
58 0 174 +17 180 0 179 255 177 217 173 258 0 362 -17 255 0 179 181 180 185 362 2
53 0 232 +17 362 0 304 361 232 217 255 253 0 0 -17 181 0 179 177 255 178 189 236
 0 182 +17 189 0 225 216 184 185 181 236 0 255 -17 174 0 242 182 238 170 169 175
 0 0 +19 161 100 0 7 0 18 14 0 S0 74 20 159 5 0 0 363 157 338 337 11 0 0 0 0 0 0
 0 0 0 0 0 0 0 0 0 81 2 363 444 147 7 0 157 0 0 364 0 81 2 157 464 149 7 363 11
 0 0 365 0 83 1 365 1 98 13 364 66 111 115 115 45 69 120 116 114 117 100 101 50
 84 18 158 PC Stand Version 174 20 6 1 0 0 2 0 0 0 0 0 0 0 0 0 0 0 0 0 0 0 0 0 0
 0 1 0 
