ISO-10303-21;
HEADER;
FILE_DESCRIPTION (( 'STEP AP203' ),
    '1' );
FILE_NAME ('stand-leg.STEP',
    '2026-06-04T06:17:36',
    ( '' ),
    ( '' ),
    'SwSTEP 2.0',
    'SolidWorks 2024',
    '' );
FILE_SCHEMA (( 'CONFIG_CONTROL_DESIGN' ));
ENDSEC;

DATA;
#1 = CARTESIAN_POINT ( 'NONE',  ( -0.1300000000000000600, 0.06609413413300815887, 0.1533333333333327664 ) ) ;
#2 = PERSON_AND_ORGANIZATION_ROLE ( 'creator' ) ;
#3 = DIRECTION ( 'NONE',  ( 1.000000000000000000, -0.000000000000000000, 0.000000000000000000 ) ) ;
#4 = EDGE_CURVE ( 'NONE', #343, #238, #404, .T. ) ;
#5 = LENGTH_MEASURE_WITH_UNIT ( LENGTH_MEASURE( 0.02539999999999999897 ), #30 );
#6 = COORDINATED_UNIVERSAL_TIME_OFFSET ( 6, 0, .BEHIND. ) ;
#7 = VECTOR ( 'NONE', #345, 39.37007874015748143 ) ;
#8 = CARTESIAN_POINT ( 'NONE',  ( 0.1300000000000000044, 2.000000000000000000, 0.2466666666666661178 ) ) ;
#9 = DIRECTION ( 'NONE',  ( -1.000000000000000000, 0.000000000000000000, 0.000000000000000000 ) ) ;
#10 = AXIS2_PLACEMENT_3D ( 'NONE', #8, #75, #131 ) ;
#11 = DIRECTION ( 'NONE',  ( 0.000000000000000000, -0.5000000000000041078, -0.8660254037844362651 ) ) ;
#12 = ORIENTED_EDGE ( 'NONE', *, *, #254, .F. ) ;
#13 = CC_DESIGN_DATE_AND_TIME_ASSIGNMENT ( #96, #221, ( #224 ) ) ;
#14 = LINE ( 'NONE', #137, #163 ) ;
#15 = LOCAL_TIME ( 1, 17, 36.00000000000000000, #166 ) ;
#16 = ORIENTED_EDGE ( 'NONE', *, *, #373, .F. ) ;
#17 = CARTESIAN_POINT ( 'NONE',  ( -0.08000000000000002942, 2.000000000000000000, -7.854062981784756507E-16 ) ) ;
#18 = ORIENTED_EDGE ( 'NONE', *, *, #129, .F. ) ;
#19 = DIRECTION ( 'NONE',  ( 1.000000000000000000, 0.000000000000000000, 0.000000000000000000 ) ) ;
#20 = EDGE_CURVE ( 'NONE', #82, #343, #245, .T. ) ;
#21 = ORIENTED_EDGE ( 'NONE', *, *, #199, .T. ) ;
#22 = CARTESIAN_POINT ( 'NONE',  ( -0.08000000000000002942, 2.000000000000000000, 0.1533333333333327664 ) ) ;
#23 = CARTESIAN_POINT ( 'NONE',  ( 0.1300000000000000044, 0.06609413413300821438, 0.1533333333333327664 ) ) ;
#24 = ORIENTED_EDGE ( 'NONE', *, *, #191, .F. ) ;
#25 = CARTESIAN_POINT ( 'NONE',  ( -0.1300000000000000600, 0.04108554283943752911, 0.2466666666666661178 ) ) ;
#26 = ORIENTED_EDGE ( 'NONE', *, *, #250, .T. ) ;
#27 = APPROVAL_DATE_TIME ( #222, #189 ) ;
#28 = FACE_OUTER_BOUND ( 'NONE', #171, .T. ) ;
#29 = VECTOR ( 'NONE', #150, 39.37007874015748143 ) ;
#30 =( LENGTH_UNIT ( ) NAMED_UNIT ( * ) SI_UNIT ( $, .METRE. ) );
#31 = ORIENTED_EDGE ( 'NONE', *, *, #132, .T. ) ;
#32 = PERSON_AND_ORGANIZATION_ROLE ( 'design_owner' ) ;
#33 = ORIENTED_EDGE ( 'NONE', *, *, #235, .T. ) ;
#34 = EDGE_CURVE ( 'NONE', #82, #60, #120, .T. ) ;
#35 = DIRECTION ( 'NONE',  ( -1.000000000000000000, 0.000000000000000000, -0.000000000000000000 ) ) ;
#36 = VECTOR ( 'NONE', #252, 39.37007874015748143 ) ;
#37 = ADVANCED_FACE ( 'NONE', ( #28 ), #278, .T. ) ;
#38 = CARTESIAN_POINT ( 'NONE',  ( 0.1300000000000000044, 0.04108554283943752911, 0.2466666666666661178 ) ) ;
#39 = CARTESIAN_POINT ( 'NONE',  ( 0.1300000000000000044, 2.000000000000000000, 0.2466666666666661178 ) ) ;
#40 = APPLICATION_CONTEXT ( 'configuration controlled 3d designs of mechanical parts and assemblies' ) ;
#41 = APPROVAL ( #177, 'UNSPECIFIED' ) ;
#42 = ORIENTED_EDGE ( 'NONE', *, *, #254, .T. ) ;
#43 = CARTESIAN_POINT ( 'NONE',  ( 0.08000000000000002942, 1.334314110493252326, -0.9597280536167689391 ) ) ;
#44 = VERTEX_POINT ( 'NONE', #372 ) ;
#45 = PLANE ( 'NONE',  #318 ) ;
#46 = AXIS2_PLACEMENT_3D ( 'NONE', #248, #347, #218 ) ;
#47 = EDGE_LOOP ( 'NONE', ( #124, #305, #367, #299, #185 ) ) ;
#48 = EDGE_CURVE ( 'NONE', #241, #397, #91, .T. ) ;
#49 = DIRECTION ( 'NONE',  ( -0.000000000000000000, -1.000000000000000000, -0.000000000000000000 ) ) ;
#50 = ORIENTED_EDGE ( 'NONE', *, *, #84, .T. ) ;
#51 = DIRECTION ( 'NONE',  ( -1.000000000000000000, 0.000000000000000000, 0.000000000000000000 ) ) ;
#52 = VECTOR ( 'NONE', #151, 39.37007874015748143 ) ;
#53 = CARTESIAN_POINT ( 'NONE',  ( -0.08000000000000002942, 2.000000000000000000, 0.1533333333333327664 ) ) ;
#54 = LOCAL_TIME ( 1, 17, 36.00000000000000000, #6 ) ;
#55 = VERTEX_POINT ( 'NONE', #280 ) ;
#56 = DIRECTION ( 'NONE',  ( 0.000000000000000000, 0.000000000000000000, -1.000000000000000000 ) ) ;
#57 = CARTESIAN_POINT ( 'NONE',  ( -0.08000000000000002942, 2.000000000000000000, 0.1533333333333327664 ) ) ;
#58 = APPLICATION_CONTEXT ( 'configuration controlled 3d designs of mechanical parts and assemblies' ) ;
#59 = DIRECTION ( 'NONE',  ( -0.000000000000000000, -1.000000000000000000, -0.000000000000000000 ) ) ;
#60 = VERTEX_POINT ( 'NONE', #1 ) ;
#61 =( CONVERSION_BASED_UNIT ( 'INCH', #5 ) LENGTH_UNIT ( ) NAMED_UNIT ( #360 ) );
#62 = ORIENTED_EDGE ( 'NONE', *, *, #321, .F. ) ;
#63 = APPROVAL_ROLE ( '' ) ;
#64 = EDGE_CURVE ( 'NONE', #234, #92, #230, .T. ) ;
#65 = EDGE_LOOP ( 'NONE', ( #12, #264, #196, #369, #76 ) ) ;
#66 = VECTOR ( 'NONE', #228, 39.37007874015748143 ) ;
#67 = CALENDAR_DATE ( 2026, 4, 6 ) ;
#68 = DIRECTION ( 'NONE',  ( 1.000000000000000000, 0.000000000000000000, 0.000000000000000000 ) ) ;
#69 = COORDINATED_UNIVERSAL_TIME_OFFSET ( 6, 0, .BEHIND. ) ;
#70 = APPROVAL_PERSON_ORGANIZATION ( #297, #41, #265 ) ;
#71 = ADVANCED_FACE ( 'NONE', ( #356 ), #193, .T. ) ;
#72 = LINE ( 'NONE', #354, #7 ) ;
#73 = CARTESIAN_POINT ( 'NONE',  ( -0.1300000000000000600, 0.04108554283943752911, 0.2466666666666661178 ) ) ;
#74 = EDGE_CURVE ( 'NONE', #238, #315, #298, .T. ) ;
#75 = DIRECTION ( 'NONE',  ( 0.000000000000000000, -0.000000000000000000, 1.000000000000000000 ) ) ;
#76 = ORIENTED_EDGE ( 'NONE', *, *, #74, .T. ) ;
#77 = DIRECTION ( 'NONE',  ( -1.000000000000000000, -0.000000000000000000, -0.000000000000000000 ) ) ;
#78 = FACE_OUTER_BOUND ( 'NONE', #229, .T. ) ;
#79 = ORIENTED_EDGE ( 'NONE', *, *, #388, .F. ) ;
#80 = CARTESIAN_POINT ( 'NONE',  ( 0.08000000000000002942, 0.06609413413300825602, 0.1533333333333327664 ) ) ;
#81 = CARTESIAN_POINT ( 'NONE',  ( 0.1300000000000000044, 2.000000000000000000, 0.2466666666666661178 ) ) ;
#82 = VERTEX_POINT ( 'NONE', #257 ) ;
#83 = LINE ( 'NONE', #111, #29 ) ;
#84 = EDGE_CURVE ( 'NONE', #92, #238, #295, .T. ) ;
#85 = APPROVAL_PERSON_ORGANIZATION ( #311, #244, #215 ) ;
#86 = EDGE_LOOP ( 'NONE', ( #337, #182, #144, #302 ) ) ;
#87 = LINE ( 'NONE', #175, #233 ) ;
#88 = EDGE_LOOP ( 'NONE', ( #183, #24, #42, #31 ) ) ;
#89 =( NAMED_UNIT ( * ) PLANE_ANGLE_UNIT ( ) SI_UNIT ( $, .RADIAN. ) );
#90 = VECTOR ( 'NONE', #341, 39.37007874015748143 ) ;
#91 = LINE ( 'NONE', #214, #90 ) ;
#92 = VERTEX_POINT ( 'NONE', #259 ) ;
#93 = VECTOR ( 'NONE', #266, 39.37007874015748143 ) ;
#94 = DIRECTION ( 'NONE',  ( 1.000000000000000000, -0.000000000000000000, -0.000000000000000000 ) ) ;
#95 = MECHANICAL_CONTEXT ( 'NONE', #58, 'mechanical' ) ;
#96 = DATE_AND_TIME ( #159, #112 ) ;
#97 = EDGE_CURVE ( 'NONE', #375, #365, #326, .T. ) ;
#98 = SECURITY_CLASSIFICATION ( '', '', #276 ) ;
#99 = CALENDAR_DATE ( 2026, 4, 6 ) ;
#100 = DIRECTION ( 'NONE',  ( 0.000000000000000000, 0.000000000000000000, -1.000000000000000000 ) ) ;
#101 = PRODUCT ( 'stand-leg', 'stand-leg', '', ( #95 ) ) ;
#102 = ADVANCED_FACE ( 'NONE', ( #256 ), #316, .F. ) ;
#103 = CARTESIAN_POINT ( 'NONE',  ( 0.08000000000000002942, 0.06609413413300825602, 0.1533333333333327664 ) ) ;
#104 = UNCERTAINTY_MEASURE_WITH_UNIT (LENGTH_MEASURE( 1.000000000000000082E-05 ), #61, 'distance_accuracy_value', 'NONE');
#105 = AXIS2_PLACEMENT_3D ( 'NONE', #114, #178, #207 ) ;
#106 = CARTESIAN_POINT ( 'NONE',  ( 0.08000000000000002942, 2.000000000000000000, 0.1533333333333327664 ) ) ;
#107 = ORIENTED_EDGE ( 'NONE', *, *, #20, .F. ) ;
#108 = AXIS2_PLACEMENT_3D ( 'NONE', #225, #383, #350 ) ;
#109 = DIRECTION ( 'NONE',  ( 0.000000000000000000, -0.000000000000000000, -1.000000000000000000 ) ) ;
#110 = ADVANCED_FACE ( 'NONE', ( #126 ), #45, .T. ) ;
#111 = CARTESIAN_POINT ( 'NONE',  ( -0.08000000000000002942, 0.1956412628822180866, -0.3301431331334013786 ) ) ;
#112 = LOCAL_TIME ( 1, 17, 36.00000000000000000, #69 ) ;
#113 = ORIENTED_EDGE ( 'NONE', *, *, #219, .T. ) ;
#114 = CARTESIAN_POINT ( 'NONE',  ( -0.1300000000000000044, 2.000000000000000000, 0.1533333333333327664 ) ) ;
#115 = ORIENTED_EDGE ( 'NONE', *, *, #199, .F. ) ;
#116 = CC_DESIGN_DATE_AND_TIME_ASSIGNMENT ( #291, #294, ( #98 ) ) ;
#117 = PLANE ( 'NONE',  #216 ) ;
#118 = EDGE_LOOP ( 'NONE', ( #173, #149, #138, #393, #33, #18, #272, #200 ) ) ;
#119 = DIRECTION ( 'NONE',  ( 0.000000000000000000, 0.000000000000000000, -1.000000000000000000 ) ) ;
#120 = LINE ( 'NONE', #211, #263 ) ;
#121 = CARTESIAN_POINT ( 'NONE',  ( -0.1300000000000000044, 2.000000000000000000, 0.2466666666666661178 ) ) ;
#122 = CC_DESIGN_PERSON_AND_ORGANIZATION_ASSIGNMENT ( #402, #246, ( #98 ) ) ;
#123 = CARTESIAN_POINT ( 'NONE',  ( 0.000000000000000000, 0.000000000000000000, 0.000000000000000000 ) ) ;
#124 = ORIENTED_EDGE ( 'NONE', *, *, #176, .F. ) ;
#125 = PERSON_AND_ORGANIZATION ( #139, #381 ) ;
#126 = FACE_OUTER_BOUND ( 'NONE', #310, .T. ) ;
#127 = APPROVAL_DATE_TIME ( #128, #244 ) ;
#128 = DATE_AND_TIME ( #67, #223 ) ;
#129 = EDGE_CURVE ( 'NONE', #282, #168, #351, .T. ) ;
#130 = AXIS2_PLACEMENT_3D ( 'NONE', #123, #317, #253 ) ;
#131 = DIRECTION ( 'NONE',  ( 1.000000000000000000, 0.000000000000000000, -0.000000000000000000 ) ) ;
#132 = EDGE_CURVE ( 'NONE', #315, #234, #195, .T. ) ;
#133 = CARTESIAN_POINT ( 'NONE',  ( -0.08000000000000005718, 2.000000000000000000, 0.000000000000000000 ) ) ;
#134 = DIRECTION ( 'NONE',  ( 0.000000000000000000, 0.000000000000000000, 1.000000000000000000 ) ) ;
#135 = ORIENTED_EDGE ( 'NONE', *, *, #4, .F. ) ;
#136 = LOCAL_TIME ( 1, 17, 36.00000000000000000, #147 ) ;
#137 = CARTESIAN_POINT ( 'NONE',  ( -0.1300000000000000600, 0.4293141104932068353, -1.202222072766939931 ) ) ;
#138 = ORIENTED_EDGE ( 'NONE', *, *, #158, .T. ) ;
#139 = PERSON ( 'UNSPECIFIED', 'UNSPECIFIED', 'UNSPECIFIED', ('UNSPECIFIED'), ('UNSPECIFIED'), ('UNSPECIFIED') ) ;
#140 = PLANE ( 'NONE',  #105 ) ;
#141 = EDGE_CURVE ( 'NONE', #249, #168, #323, .T. ) ;
#142 = VECTOR ( 'NONE', #170, 39.37007874015747433 ) ;
#143 = LINE ( 'NONE', #329, #208 ) ;
#144 = ORIENTED_EDGE ( 'NONE', *, *, #74, .F. ) ;
#145 = DIRECTION ( 'NONE',  ( 0.000000000000000000, 0.000000000000000000, 1.000000000000000000 ) ) ;
#146 = ADVANCED_FACE ( 'NONE', ( #157 ), #220, .F. ) ;
#147 = COORDINATED_UNIVERSAL_TIME_OFFSET ( 6, 0, .BEHIND. ) ;
#148 = LINE ( 'NONE', #307, #283 ) ;
#149 = ORIENTED_EDGE ( 'NONE', *, *, #191, .T. ) ;
#150 = DIRECTION ( 'NONE',  ( 0.000000000000000000, 0.2588190451025128014, -0.9659258262890704216 ) ) ;
#151 = DIRECTION ( 'NONE',  ( 0.000000000000000000, 0.000000000000000000, -1.000000000000000000 ) ) ;
#152 = PERSON_AND_ORGANIZATION ( #139, #381 ) ;
#153 = CC_DESIGN_SECURITY_CLASSIFICATION ( #98, ( #385 ) ) ;
#154 = ORIENTED_EDGE ( 'NONE', *, *, #321, .T. ) ;
#155 = DIRECTION ( 'NONE',  ( 0.000000000000000000, 0.000000000000000000, 1.000000000000000000 ) ) ;
#156 = ORIENTED_EDGE ( 'NONE', *, *, #129, .T. ) ;
#157 = FACE_OUTER_BOUND ( 'NONE', #86, .T. ) ;
#158 = EDGE_CURVE ( 'NONE', #386, #375, #72, .T. ) ;
#159 = CALENDAR_DATE ( 2026, 4, 6 ) ;
#160 = ADVANCED_FACE ( 'NONE', ( #320 ), #289, .T. ) ;
#161 = VECTOR ( 'NONE', #338, 39.37007874015748143 ) ;
#162 = PLANE ( 'NONE',  #197 ) ;
#163 = VECTOR ( 'NONE', #260, 39.37007874015748143 ) ;
#164 = CARTESIAN_POINT ( 'NONE',  ( 0.1000000000000000056, 2.000000000000000000, 0.000000000000000000 ) ) ;
#165 = ORIENTED_EDGE ( 'NONE', *, *, #34, .F. ) ;
#166 = COORDINATED_UNIVERSAL_TIME_OFFSET ( 6, 0, .BEHIND. ) ;
#167 = DIRECTION ( 'NONE',  ( 0.000000000000000000, -0.9659258262890705327, -0.2588190451025125793 ) ) ;
#168 = VERTEX_POINT ( 'NONE', #38 ) ;
#169 = ADVANCED_FACE ( 'NONE', ( #382 ), #162, .T. ) ;
#170 = DIRECTION ( 'NONE',  ( -0.000000000000000000, 0.5000000000000041078, 0.8660254037844363761 ) ) ;
#171 = EDGE_LOOP ( 'NONE', ( #113, #62, #324, #209 ) ) ;
#172 = LINE ( 'NONE', #364, #348 ) ;
#173 = ORIENTED_EDGE ( 'NONE', *, *, #328, .T. ) ;
#174 = VECTOR ( 'NONE', #188, 39.37007874015747433 ) ;
#175 = CARTESIAN_POINT ( 'NONE',  ( 0.1300000000000000044, 0.04108554283943752911, 0.2466666666666661178 ) ) ;
#176 = EDGE_CURVE ( 'NONE', #234, #386, #325, .T. ) ;
#177 = APPROVAL_STATUS ( 'not_yet_approved' ) ;
#178 = DIRECTION ( 'NONE',  ( 0.000000000000000000, 0.000000000000000000, -1.000000000000000000 ) ) ;
#179 = ORIENTED_EDGE ( 'NONE', *, *, #281, .T. ) ;
#180 = APPROVAL_DATE_TIME ( #270, #41 ) ;
#181 = LINE ( 'NONE', #232, #285 ) ;
#182 = ORIENTED_EDGE ( 'NONE', *, *, #132, .F. ) ;
#183 = ORIENTED_EDGE ( 'NONE', *, *, #176, .T. ) ;
#184 = CC_DESIGN_APPROVAL ( #41, ( #98 ) ) ;
#185 = ORIENTED_EDGE ( 'NONE', *, *, #158, .F. ) ;
#186 = CALENDAR_DATE ( 2026, 4, 6 ) ;
#187 = ORIENTED_EDGE ( 'NONE', *, *, #403, .F. ) ;
#188 = DIRECTION ( 'NONE',  ( 0.000000000000000000, -0.5000000000000041078, -0.8660254037844363761 ) ) ;
#189 = APPROVAL ( #286, 'UNSPECIFIED' ) ;
#190 = PERSON_AND_ORGANIZATION ( #139, #381 ) ;
#191 = EDGE_CURVE ( 'NONE', #55, #386, #14, .T. ) ;
#192 = AXIS2_PLACEMENT_3D ( 'NONE', #384, #68, #100 ) ;
#193 = PLANE ( 'NONE',  #192 ) ;
#194 = VECTOR ( 'NONE', #400, 39.37007874015748143 ) ;
#195 = LINE ( 'NONE', #377, #371 ) ;
#196 = ORIENTED_EDGE ( 'NONE', *, *, #250, .F. ) ;
#197 = AXIS2_PLACEMENT_3D ( 'NONE', #292, #9, #134 ) ;
#198 = DIRECTION ( 'NONE',  ( 0.000000000000000000, -0.8660254037844362651, 0.5000000000000041078 ) ) ;
#199 = EDGE_CURVE ( 'NONE', #397, #249, #148, .T. ) ;
#200 = ORIENTED_EDGE ( 'NONE', *, *, #403, .T. ) ;
#201 = CALENDAR_DATE ( 2026, 4, 6 ) ;
#202 = CARTESIAN_POINT ( 'NONE',  ( 0.1000000000000000056, 2.000000000000000000, 0.000000000000000000 ) ) ;
#203 = CARTESIAN_POINT ( 'NONE',  ( -0.08000000000000005718, 1.466322522267578421, -0.9243565062877250327 ) ) ;
#204 = LINE ( 'NONE', #81, #243 ) ;
#205 = FACE_OUTER_BOUND ( 'NONE', #206, .T. ) ;
#206 = EDGE_LOOP ( 'NONE', ( #231, #308, #21, #269 ) ) ;
#207 = DIRECTION ( 'NONE',  ( -1.000000000000000000, 0.000000000000000000, -0.000000000000000000 ) ) ;
#208 = VECTOR ( 'NONE', #261, 39.37007874015748854 ) ;
#209 = ORIENTED_EDGE ( 'NONE', *, *, #34, .T. ) ;
#210 = CARTESIAN_POINT ( 'NONE',  ( 0.1300000000000000044, 2.000000000000000000, 0.1533333333333327664 ) ) ;
#211 = CARTESIAN_POINT ( 'NONE',  ( -0.1300000000000000044, 2.000000000000000000, 0.1533333333333327664 ) ) ;
#212 = ADVANCED_FACE ( 'NONE', ( #78 ), #140, .T. ) ;
#213 = LINE ( 'NONE', #314, #255 ) ;
#214 = CARTESIAN_POINT ( 'NONE',  ( 0.08000000000000002942, 2.000000000000000000, 0.1533333333333327664 ) ) ;
#215 = APPROVAL_ROLE ( '' ) ;
#216 = AXIS2_PLACEMENT_3D ( 'NONE', #358, #236, #109 ) ;
#217 = ORIENTED_EDGE ( 'NONE', *, *, #48, .T. ) ;
#218 = DIRECTION ( 'NONE',  ( 0.000000000000000000, -0.2588190451025128014, 0.9659258262890704216 ) ) ;
#219 = EDGE_CURVE ( 'NONE', #60, #282, #390, .T. ) ;
#220 = PLANE ( 'NONE',  #355 ) ;
#221 = DATE_TIME_ROLE ( 'creation_date' ) ;
#222 = DATE_AND_TIME ( #186, #54 ) ;
#223 = LOCAL_TIME ( 1, 17, 36.00000000000000000, #342 ) ;
#224 = PRODUCT_DEFINITION ( 'UNKNOWN', '', #385, #352 ) ;
#225 = CARTESIAN_POINT ( 'NONE',  ( -0.1300000000000000600, 0.4293141104932067798, -1.202222072766939709 ) ) ;
#226 = DIRECTION ( 'NONE',  ( 0.000000000000000000, 0.000000000000000000, -1.000000000000000000 ) ) ;
#227 = EDGE_LOOP ( 'NONE', ( #16, #50, #135, #107, #353, #79, #115, #296 ) ) ;
#228 = DIRECTION ( 'NONE',  ( -0.000000000000000000, -1.000000000000000000, -0.000000000000000000 ) ) ;
#229 = EDGE_LOOP ( 'NONE', ( #187, #165, #267, #26 ) ) ;
#230 = LINE ( 'NONE', #387, #142 ) ;
#231 = ORIENTED_EDGE ( 'NONE', *, *, #235, .F. ) ;
#232 = CARTESIAN_POINT ( 'NONE',  ( 0.08000000000000002942, 2.000000000000000000, 0.000000000000000000 ) ) ;
#233 = VECTOR ( 'NONE', #309, 39.37007874015748143 ) ;
#234 = VERTEX_POINT ( 'NONE', #271 ) ;
#235 = EDGE_CURVE ( 'NONE', #365, #168, #87, .T. ) ;
#236 = DIRECTION ( 'NONE',  ( 0.000000000000000000, -1.000000000000000000, 0.000000000000000000 ) ) ;
#237 = LINE ( 'NONE', #368, #394 ) ;
#238 = VERTEX_POINT ( 'NONE', #17 ) ;
#239 = SHAPE_DEFINITION_REPRESENTATION ( #290, #288 ) ;
#240 = CARTESIAN_POINT ( 'NONE',  ( 0.1300000000000000044, 2.000000000000000000, 0.2466666666666661178 ) ) ;
#241 = VERTEX_POINT ( 'NONE', #392 ) ;
#242 = LINE ( 'NONE', #268, #161 ) ;
#243 = VECTOR ( 'NONE', #51, 39.37007874015748143 ) ;
#244 = APPROVAL ( #405, 'UNSPECIFIED' ) ;
#245 = LINE ( 'NONE', #275, #331 ) ;
#246 = PERSON_AND_ORGANIZATION_ROLE ( 'classification_officer' ) ;
#247 = DIRECTION ( 'NONE',  ( -1.000000000000000000, 0.000000000000000000, 0.000000000000000000 ) ) ;
#248 = CARTESIAN_POINT ( 'NONE',  ( -0.1300000000000000600, 0.04108554283943752911, 0.2466666666666661178 ) ) ;
#249 = VERTEX_POINT ( 'NONE', #240 ) ;
#250 = EDGE_CURVE ( 'NONE', #343, #359, #366, .T. ) ;
#251 = PERSON_AND_ORGANIZATION_ROLE ( 'creator' ) ;
#252 = DIRECTION ( 'NONE',  ( 1.000000000000000000, -0.000000000000000000, -0.000000000000000000 ) ) ;
#253 = DIRECTION ( 'NONE',  ( 1.000000000000000000, 0.000000000000000000, 0.000000000000000000 ) ) ;
#254 = EDGE_CURVE ( 'NONE', #55, #315, #143, .T. ) ;
#255 = VECTOR ( 'NONE', #370, 39.37007874015748143 ) ;
#256 = FACE_OUTER_BOUND ( 'NONE', #88, .T. ) ;
#257 = CARTESIAN_POINT ( 'NONE',  ( -0.1300000000000000044, 2.000000000000000000, 0.1533333333333327664 ) ) ;
#258 = CC_DESIGN_PERSON_AND_ORGANIZATION_ASSIGNMENT ( #380, #2, ( #224 ) ) ;
#259 = CARTESIAN_POINT ( 'NONE',  ( 0.08000000000000002942, 2.000000000000000000, -5.463695987328526437E-16 ) ) ;
#260 = DIRECTION ( 'NONE',  ( 1.000000000000000000, 0.000000000000000000, -0.000000000000000000 ) ) ;
#261 = DIRECTION ( 'NONE',  ( 0.000000000000000000, 0.9659258262890705327, 0.2588190451025125793 ) ) ;
#262 = CC_DESIGN_PERSON_AND_ORGANIZATION_ASSIGNMENT ( #152, #376, ( #385 ) ) ;
#263 = VECTOR ( 'NONE', #312, 39.37007874015748143 ) ;
#264 = ORIENTED_EDGE ( 'NONE', *, *, #328, .F. ) ;
#265 = APPROVAL_ROLE ( '' ) ;
#266 = DIRECTION ( 'NONE',  ( -0.000000000000000000, -1.000000000000000000, -0.000000000000000000 ) ) ;
#267 = ORIENTED_EDGE ( 'NONE', *, *, #20, .T. ) ;
#268 = CARTESIAN_POINT ( 'NONE',  ( 0.08000000000000002942, 2.000000000000000000, 0.1533333333333327664 ) ) ;
#269 = ORIENTED_EDGE ( 'NONE', *, *, #141, .T. ) ;
#270 = DATE_AND_TIME ( #201, #136 ) ;
#271 = CARTESIAN_POINT ( 'NONE',  ( 0.07999999999999996003, 1.466322522267578421, -0.9243565062877250327 ) ) ;
#272 = ORIENTED_EDGE ( 'NONE', *, *, #219, .F. ) ;
#273 = PRODUCT_RELATED_PRODUCT_CATEGORY ( 'detail', '', ( #101 ) ) ;
#274 = LINE ( 'NONE', #210, #93 ) ;
#275 = CARTESIAN_POINT ( 'NONE',  ( -0.1300000000000000044, 2.000000000000000000, 0.1533333333333327664 ) ) ;
#276 = SECURITY_CLASSIFICATION_LEVEL ( 'unclassified' ) ;
#277 =( GEOMETRIC_REPRESENTATION_CONTEXT ( 3 ) GLOBAL_UNCERTAINTY_ASSIGNED_CONTEXT ( ( #104 ) ) GLOBAL_UNIT_ASSIGNED_CONTEXT ( ( #61, #89, #378 ) ) REPRESENTATION_CONTEXT ( 'NONE', 'WORKASPACE' ) );
#278 = PLANE ( 'NONE',  #319 ) ;
#279 = APPLICATION_PROTOCOL_DEFINITION ( 'international standard', 'config_control_design', 1994, #40 ) ;
#280 = CARTESIAN_POINT ( 'NONE',  ( -0.08000000000000005718, 0.4293141104932067798, -1.202222072766939709 ) ) ;
#281 = EDGE_CURVE ( 'NONE', #397, #365, #274, .T. ) ;
#282 = VERTEX_POINT ( 'NONE', #398 ) ;
#283 = VECTOR ( 'NONE', #145, 39.37007874015748143 ) ;
#284 = APPLICATION_PROTOCOL_DEFINITION ( 'international standard', 'config_control_design', 1994, #58 ) ;
#285 = VECTOR ( 'NONE', #330, 39.37007874015748143 ) ;
#286 = APPROVAL_STATUS ( 'not_yet_approved' ) ;
#287 = VECTOR ( 'NONE', #3, 39.37007874015748143 ) ;
#288 = ADVANCED_BREP_SHAPE_REPRESENTATION ( 'stand-leg', ( #379, #130 ), #277 ) ;
#289 = PLANE ( 'NONE',  #10 ) ;
#290 = PRODUCT_DEFINITION_SHAPE ( 'NONE', 'NONE',  #224 ) ;
#291 = DATE_AND_TIME ( #99, #15 ) ;
#292 = CARTESIAN_POINT ( 'NONE',  ( -0.08000000000000002942, 2.000000000000000000, 0.1533333333333327664 ) ) ;
#293 = EDGE_CURVE ( 'NONE', #241, #375, #242, .T. ) ;
#294 = DATE_TIME_ROLE ( 'classification_date' ) ;
#295 = LINE ( 'NONE', #202, #304 ) ;
#296 = ORIENTED_EDGE ( 'NONE', *, *, #48, .F. ) ;
#297 = PERSON_AND_ORGANIZATION ( #139, #381 ) ;
#298 = LINE ( 'NONE', #133, #174 ) ;
#299 = ORIENTED_EDGE ( 'NONE', *, *, #293, .T. ) ;
#300 = AXIS2_PLACEMENT_3D ( 'NONE', #362, #19, #56 ) ;
#301 = FACE_OUTER_BOUND ( 'NONE', #227, .T. ) ;
#302 = ORIENTED_EDGE ( 'NONE', *, *, #84, .F. ) ;
#303 = PLANE ( 'NONE',  #300 ) ;
#304 = VECTOR ( 'NONE', #77, 39.37007874015748143 ) ;
#305 = ORIENTED_EDGE ( 'NONE', *, *, #64, .T. ) ;
#306 = CARTESIAN_POINT ( 'NONE',  ( 0.08000000000000002942, 0.4293141104932069463, -1.202222072766939931 ) ) ;
#307 = CARTESIAN_POINT ( 'NONE',  ( 0.1300000000000000044, 2.000000000000000000, 0.1533333333333327664 ) ) ;
#308 = ORIENTED_EDGE ( 'NONE', *, *, #281, .F. ) ;
#309 = DIRECTION ( 'NONE',  ( -0.000000000000000000, -0.2588190451025128014, 0.9659258262890704216 ) ) ;
#310 = EDGE_LOOP ( 'NONE', ( #334, #313, #217, #179 ) ) ;
#311 = PERSON_AND_ORGANIZATION ( #139, #381 ) ;
#312 = DIRECTION ( 'NONE',  ( -0.000000000000000000, -1.000000000000000000, -0.000000000000000000 ) ) ;
#313 = ORIENTED_EDGE ( 'NONE', *, *, #293, .F. ) ;
#314 = CARTESIAN_POINT ( 'NONE',  ( -0.1300000000000000044, 0.06609413413300825602, 0.1533333333333327664 ) ) ;
#315 = VERTEX_POINT ( 'NONE', #203 ) ;
#316 = PLANE ( 'NONE',  #108 ) ;
#317 = DIRECTION ( 'NONE',  ( 0.000000000000000000, 0.000000000000000000, 1.000000000000000000 ) ) ;
#318 = AXIS2_PLACEMENT_3D ( 'NONE', #106, #226, #35 ) ;
#319 = AXIS2_PLACEMENT_3D ( 'NONE', #121, #247, #155 ) ;
#320 = FACE_OUTER_BOUND ( 'NONE', #339, .T. ) ;
#321 = EDGE_CURVE ( 'NONE', #44, #282, #237, .T. ) ;
#322 = CC_DESIGN_APPROVAL ( #244, ( #224 ) ) ;
#323 = LINE ( 'NONE', #39, #66 ) ;
#324 = ORIENTED_EDGE ( 'NONE', *, *, #357, .T. ) ;
#325 = LINE ( 'NONE', #43, #344 ) ;
#326 = LINE ( 'NONE', #103, #287 ) ;
#327 = VECTOR ( 'NONE', #49, 39.37007874015748143 ) ;
#328 = EDGE_CURVE ( 'NONE', #359, #55, #83, .T. ) ;
#329 = CARTESIAN_POINT ( 'NONE',  ( -0.08000000000000002942, 2.233672847610988388, -0.7187456063002060080 ) ) ;
#330 = DIRECTION ( 'NONE',  ( -0.000000000000000000, 0.000000000000000000, 1.000000000000000000 ) ) ;
#331 = VECTOR ( 'NONE', #401, 39.37007874015748143 ) ;
#332 = PLANE ( 'NONE',  #46 ) ;
#333 = CC_DESIGN_PERSON_AND_ORGANIZATION_ASSIGNMENT ( #346, #32, ( #101 ) ) ;
#334 = ORIENTED_EDGE ( 'NONE', *, *, #97, .F. ) ;
#335 = APPROVAL_PERSON_ORGANIZATION ( #190, #189, #63 ) ;
#336 = CARTESIAN_POINT ( 'NONE',  ( -0.08000000000000002942, 0.06609413413300825602, 0.1533333333333327664 ) ) ;
#337 = ORIENTED_EDGE ( 'NONE', *, *, #64, .F. ) ;
#338 = DIRECTION ( 'NONE',  ( -0.000000000000000000, -1.000000000000000000, -0.000000000000000000 ) ) ;
#339 = EDGE_LOOP ( 'NONE', ( #156, #399, #389, #154 ) ) ;
#340 = CC_DESIGN_PERSON_AND_ORGANIZATION_ASSIGNMENT ( #125, #251, ( #385 ) ) ;
#341 = DIRECTION ( 'NONE',  ( 1.000000000000000000, 0.000000000000000000, 0.000000000000000000 ) ) ;
#342 = COORDINATED_UNIVERSAL_TIME_OFFSET ( 6, 0, .BEHIND. ) ;
#343 = VERTEX_POINT ( 'NONE', #53 ) ;
#344 = VECTOR ( 'NONE', #167, 39.37007874015748854 ) ;
#345 = DIRECTION ( 'NONE',  ( 0.000000000000000000, -0.2588190451025128014, 0.9659258262890704216 ) ) ;
#346 = PERSON_AND_ORGANIZATION ( #139, #381 ) ;
#347 = DIRECTION ( 'NONE',  ( 0.000000000000000000, 0.9659258262890704216, 0.2588190451025128014 ) ) ;
#348 = VECTOR ( 'NONE', #119, 39.37007874015748143 ) ;
#349 = ADVANCED_FACE ( 'NONE', ( #301 ), #117, .F. ) ;
#350 = DIRECTION ( 'NONE',  ( 0.000000000000000000, -0.9659258262890705327, -0.2588190451025125793 ) ) ;
#351 = LINE ( 'NONE', #73, #36 ) ;
#352 = DESIGN_CONTEXT ( 'detailed design', #40, 'design' ) ;
#353 = ORIENTED_EDGE ( 'NONE', *, *, #357, .F. ) ;
#354 = CARTESIAN_POINT ( 'NONE',  ( 0.08000000000000002942, 1.094999999999954898, -3.686595634287887169 ) ) ;
#355 = AXIS2_PLACEMENT_3D ( 'NONE', #164, #198, #11 ) ;
#356 = FACE_OUTER_BOUND ( 'NONE', #47, .T. ) ;
#357 = EDGE_CURVE ( 'NONE', #44, #82, #172, .T. ) ;
#358 = CARTESIAN_POINT ( 'NONE',  ( 0.000000000000000000, 2.000000000000000000, 0.000000000000000000 ) ) ;
#359 = VERTEX_POINT ( 'NONE', #336 ) ;
#360 = DIMENSIONAL_EXPONENTS ( 1.000000000000000000, 0.000000000000000000, 0.000000000000000000, 0.000000000000000000, 0.000000000000000000, 0.000000000000000000, 0.000000000000000000 ) ;
#361 = CC_DESIGN_APPROVAL ( #189, ( #385 ) ) ;
#362 = CARTESIAN_POINT ( 'NONE',  ( 0.1300000000000000044, 2.000000000000000000, 0.1533333333333327664 ) ) ;
#363 = ADVANCED_FACE ( 'NONE', ( #205 ), #303, .T. ) ;
#364 = CARTESIAN_POINT ( 'NONE',  ( -0.1300000000000000044, 2.000000000000000000, 0.2466666666666661178 ) ) ;
#365 = VERTEX_POINT ( 'NONE', #23 ) ;
#366 = LINE ( 'NONE', #22, #327 ) ;
#367 = ORIENTED_EDGE ( 'NONE', *, *, #373, .T. ) ;
#368 = CARTESIAN_POINT ( 'NONE',  ( -0.1300000000000000044, 2.000000000000000000, 0.2466666666666661178 ) ) ;
#369 = ORIENTED_EDGE ( 'NONE', *, *, #4, .T. ) ;
#370 = DIRECTION ( 'NONE',  ( 1.000000000000000000, -0.000000000000000000, 0.000000000000000000 ) ) ;
#371 = VECTOR ( 'NONE', #94, 39.37007874015748143 ) ;
#372 = CARTESIAN_POINT ( 'NONE',  ( -0.1300000000000000044, 2.000000000000000000, 0.2466666666666661178 ) ) ;
#373 = EDGE_CURVE ( 'NONE', #92, #241, #181, .T. ) ;
#374 = CARTESIAN_POINT ( 'NONE',  ( 0.1300000000000000044, 2.000000000000000000, 0.1533333333333327664 ) ) ;
#375 = VERTEX_POINT ( 'NONE', #80 ) ;
#376 = PERSON_AND_ORGANIZATION_ROLE ( 'design_supplier' ) ;
#377 = CARTESIAN_POINT ( 'NONE',  ( -0.1300000000000000600, 1.466322522267578421, -0.9243565062877250327 ) ) ;
#378 =( NAMED_UNIT ( * ) SI_UNIT ( $, .STERADIAN. ) SOLID_ANGLE_UNIT ( ) );
#379 = MANIFOLD_SOLID_BREP ( 'Cut-Extrude4', #391 ) ;
#380 = PERSON_AND_ORGANIZATION ( #139, #381 ) ;
#381 = ORGANIZATION ( 'UNSPECIFIED', 'UNSPECIFIED', '' ) ;
#382 = FACE_OUTER_BOUND ( 'NONE', #65, .T. ) ;
#383 = DIRECTION ( 'NONE',  ( 0.000000000000000000, -0.2588190451025125793, 0.9659258262890705327 ) ) ;
#384 = CARTESIAN_POINT ( 'NONE',  ( 0.08000000000000002942, 2.000000000000000000, -3.444101615137717509 ) ) ;
#385 = PRODUCT_DEFINITION_FORMATION_WITH_SPECIFIED_SOURCE ( 'ANY', '', #101, .NOT_KNOWN. ) ;
#386 = VERTEX_POINT ( 'NONE', #306 ) ;
#387 = CARTESIAN_POINT ( 'NONE',  ( 0.08000000000000002942, 2.000000000000000000, 0.000000000000000000 ) ) ;
#388 = EDGE_CURVE ( 'NONE', #249, #44, #204, .T. ) ;
#389 = ORIENTED_EDGE ( 'NONE', *, *, #388, .T. ) ;
#390 = LINE ( 'NONE', #25, #194 ) ;
#391 = CLOSED_SHELL ( 'NONE', ( #349, #146, #71, #169, #212, #37, #160, #363, #110, #395, #102 ) ) ;
#392 = CARTESIAN_POINT ( 'NONE',  ( 0.08000000000000002942, 2.000000000000000000, 0.1533333333333327664 ) ) ;
#393 = ORIENTED_EDGE ( 'NONE', *, *, #97, .T. ) ;
#394 = VECTOR ( 'NONE', #59, 39.37007874015748143 ) ;
#395 = ADVANCED_FACE ( 'NONE', ( #396 ), #332, .F. ) ;
#396 = FACE_OUTER_BOUND ( 'NONE', #118, .T. ) ;
#397 = VERTEX_POINT ( 'NONE', #374 ) ;
#398 = CARTESIAN_POINT ( 'NONE',  ( -0.1300000000000000600, 0.04108554283943752911, 0.2466666666666661178 ) ) ;
#399 = ORIENTED_EDGE ( 'NONE', *, *, #141, .F. ) ;
#400 = DIRECTION ( 'NONE',  ( -0.000000000000000000, -0.2588190451025128014, 0.9659258262890704216 ) ) ;
#401 = DIRECTION ( 'NONE',  ( 1.000000000000000000, 0.000000000000000000, 0.000000000000000000 ) ) ;
#402 = PERSON_AND_ORGANIZATION ( #139, #381 ) ;
#403 = EDGE_CURVE ( 'NONE', #60, #359, #213, .T. ) ;
#404 = LINE ( 'NONE', #57, #52 ) ;
#405 = APPROVAL_STATUS ( 'not_yet_approved' ) ;
ENDSEC;
END-ISO-10303-21;
